<svg version="1.1" xmlns="http://www.w3.org/2000/svg" xmlns:xlink="http://www.w3.org/1999/xlink" width="79.38148" height="270.7713" viewBox="0,0,79.38148,270.7713"><g transform="translate(-200.30926,-44.61435)"><g data-paper-data="{&quot;isPaintingLayer&quot;:true}" fill-rule="nonzero" stroke-linejoin="miter" stroke-miterlimit="10" stroke-dasharray="" stroke-dashoffset="0" style="mix-blend-mode: normal"><path d="M222.75925,83.54901v-23.7037h36.48148v23.70371z" fill="#262626" stroke="#000000" stroke-width="1" stroke-linecap="butt"/><g><path d="M217.0353,148.3387l-0.05991,-49.88295l45.7343,0.18765l0.91653,50.83167" fill="#020080" stroke="#000000" stroke-width="1" stroke-linecap="round"/><path d="M209.17298,106.52903c0,-4.40335 3.56962,-7.97297 7.97297,-7.97297c4.40335,0 7.97297,3.56962 7.97297,7.97297c0,4.40335 -3.56963,7.97297 -7.97297,7.97297c-4.40335,0 -7.97297,-3.56963 -7.97297,-7.97297z" fill="#020080" stroke="none" stroke-width="0" stroke-linecap="butt"/><path d="M254.8248,107.74525c0,-4.40335 3.56962,-7.97297 7.97297,-7.97297c4.40335,0 7.97297,3.56962 7.97297,7.97297c0,4.40335 -3.56963,7.97297 -7.97297,7.97297c-4.40335,0 -7.97297,-3.56963 -7.97297,-7.97297z" fill="#020080" stroke="none" stroke-width="0" stroke-linecap="butt"/><path d="M250.05717,83.58982c0,0 -2.37032,7.45607 -2.40089,10.23777c-0.02427,2.20897 2.23197,5.13386 2.23197,5.13386c0,0 -6.57309,5.39983 -9.71365,5.3312c-3.03937,-0.06643 -8.83608,-5.7366 -8.83608,-5.7366c0,0 2.25624,-2.92489 2.23197,-5.13386c-0.03057,-2.7817 -2.40089,-10.23777 -2.40089,-10.23777c0,0 2.95261,-7.38936 9.00338,-7.46621c7.67173,-0.09744 9.88419,7.87162 9.88419,7.87162z" data-paper-data="{&quot;index&quot;:null}" fill="#ffe7bf" stroke="#000000" stroke-width="1" stroke-linecap="round"/><path d="M249.63244,99.50201l-10.54054,22.97297l-7.2973,-22.97297c0,0 4.67065,4.32433 8.24325,4.32433c3.5726,0 9.59459,-4.32433 9.59459,-4.32433z" fill="#ffffff" stroke="#000000" stroke-width="1" stroke-linecap="round"/><path d="M239.76757,103.55606l-3.78378,4.18919l7.02703,6.08108l-4.05405,8.91892l-2.43243,-8.37838l7.02703,-5.81081z" fill="#027f00" stroke="#000000" stroke-width="1" stroke-linecap="round"/><path d="M232.25463,84.31224c0,0 0.90988,-7.79158 7.96847,-7.65957c7.60825,0.14229 8.83429,7.95859 8.83429,7.95859c0,0 -1.25063,3.10328 -1.5866,4.60371c-0.30746,1.37305 -0.45767,4.15707 -0.45767,4.15707l-12.60783,-0.21277c0,0 -0.21051,-2.17884 -0.52173,-3.45909c-0.38842,-1.59781 -1.62893,-5.38794 -1.62893,-5.38794z" fill="#807460" stroke="#807460" stroke-width="1" stroke-linecap="round"/><path d="M228.95676,132.20469l-4.05405,-12.43243" fill="none" stroke="#010040" stroke-width="1" stroke-linecap="round"/><path d="M253.68649,133.15065l-3.51351,13.78378" fill="none" stroke="#010040" stroke-width="1" stroke-linecap="round"/><path d="M244.30292,130.23212v-6.9149h15.53191v6.9149z" fill="#000000" stroke="#000000" stroke-width="1" stroke-linecap="butt"/><path d="M245.36675,129.38104v-5.29737h13.29788v5.29737z" fill="none" stroke="#ffc800" stroke-width="1" stroke-linecap="butt"/><path d="M246.21781,127.89169c0,0 0.60032,-1.01859 1.17021,-1.48936c0.56989,-0.47078 0.73034,-0.50915 1.2766,-0.53191c0.54626,-0.02276 0.90091,0.04985 1.2766,0.42553c0.37569,0.37569 0.21276,1.06383 0.21276,1.06383c0,0 0.54974,-0.78019 1.06383,-1.06383c0.51409,-0.28364 1.1925,-0.6383 2.02128,-0.6383c0.82878,0 0.54848,0.2459 0.74468,0.6383c0.1962,0.3924 0.10639,1.06383 0.10639,1.06383c0,0 0.65707,-0.83676 1.17021,-1.2766c0.51315,-0.43984 0.58287,-0.71044 1.06383,-0.63829c0.48095,0.07215 0.83219,0.43625 1.06383,0.95745c0.23164,0.5212 -0.21276,0.95745 -0.21276,0.95745" fill="none" stroke="#ffc800" stroke-width="1" stroke-linecap="round"/></g><g stroke-width="1" stroke-linecap="round"><path d="M263.44835,149.02573l0.05991,51.66064l-45.73429,-0.19434l-0.91652,-52.64317" fill="#020080" stroke="#000000"/><path d="M226.36338,158.13961l4.05406,12.43243" fill="none" stroke="#010040"/><path d="M251.09311,182.46394l-3.51351,13.78378" fill="none" stroke="#010040"/><path d="M230.28169,178.62487l-10.54054,-12.02703" fill="none" stroke="#010040"/><path d="M227.44386,169.1654l-3.24325,-2.83784" fill="none" stroke="#010040"/><path d="M259.60601,181.19244l1.48648,10.13514" fill="none" stroke="#010040"/><path d="M253.52493,185.24649l4.32433,4.45946" fill="none" stroke="#010040"/></g><g stroke-width="1" stroke-linecap="round"><path d="M254.92977,59.58732c1.42586,3.65652 0.58776,12.83878 -0.21665,15.64181c-0.51295,1.78743 -0.37082,1.73041 -0.89642,2.75586c-0.52559,1.02545 -0.891,1.70593 -1.5696,2.45768c-0.6786,0.75176 -3.29508,4.10908 -6.14757,7.15828c-2.26054,2.41644 -2.89456,3.0028 -5.1698,3.13825c-3.07452,0.18304 -4.26595,-1.66762 -6.14057,-3.69013c-1.22995,-1.32697 -3.11796,-3.77286 -6.02657,-7.37123c-1.70535,-2.10977 -1.0217,-1.29846 -1.62595,-2.60073c-0.60425,-1.30228 -0.59698,-1.57816 -0.80432,-2.63694c-0.20734,-1.05879 -1.89332,-10.59448 -1.2192,-13.46847c0.67413,-2.87399 1.37197,-6.07478 4.13287,-8.57613c2.7609,-2.50136 5.82803,-4.15529 10.17748,-4.38895c4.34945,-0.23366 6.50328,0.87359 9.77508,3.3171c3.2718,2.4435 4.30535,4.60709 5.73122,8.26361z" fill="#ffe7bf" stroke="#000000"/><path d="M226.41453,63.19018l28.76438,-1.31836l-0.4794,6.11243l-28.52468,0.95881z" fill="#807460" stroke="#807460"/><path d="M241.06881,48.13008c0,0 4.47525,-3.21536 8.52566,-2.2733c4.05042,0.94207 5.76555,2.80296 7.76444,6.06215c1.99888,3.25919 1.87041,7.16258 1.97916,9.21953c0.10875,2.05694 -1.21795,5.17809 -1.21795,5.17809c0,0 -1.98561,-1.55871 -2.95619,-2.15741c-0.97059,-0.59871 -2.98132,-1.50514 -2.98132,-1.50514c0,0 1.6415,0.96683 1.46153,2.12382c-0.17996,1.15699 -2.07051,1.79132 -2.07051,1.79132c0,0 0.19103,-1.36787 -0.30449,-2.02072c-0.49551,-0.65286 -2.28366,-1.38924 -2.28366,-1.38924c0,0 1.34117,1.06641 1.52244,1.76813c0.18127,0.70172 -1.0657,1.64184 -1.0657,1.64184c0,0 -1.28049,-1.27698 -2.28366,-1.89442c-1.00317,-0.61744 -1.97916,-0.88407 -1.97916,-0.88407l-0.30449,2.90479c0,0 -1.73164,-0.64335 -2.89264,-1.13665c-1.161,-0.4933 -1.0657,-2.3996 -1.0657,-2.3996c0,0 -0.21013,1.61856 -1.3702,2.65219c-1.16005,1.03361 -1.0657,1.76813 -1.0657,1.76813c0,0 -0.98383,-1.04936 -1.82693,-2.27331c-0.84309,-1.22394 -3.50161,-2.14702 -3.50161,-2.14702c0,0 -0.14844,1.56539 0,2.52589c0.14845,0.9605 0.76122,2.3996 0.76122,2.3996c0,0 -3.6351,-1.27687 -4.41507,-2.14702c-0.77997,-0.87014 0,-2.77849 0,-2.77849l-3.04489,4.92549c0,0 -2.08049,-1.34678 -2.89264,-3.03107c-0.81215,-1.6843 -1.00023,-1.07676 -0.76122,-4.54662c0.23902,-3.46985 -0.33328,-5.4635 1.67469,-8.71436c2.00797,-3.25085 4.18192,-5.77663 7.76444,-6.56733c3.58251,-0.79069 8.83015,2.90478 8.83015,2.90478z" fill="#262626" stroke="#000000"/><path d="M230.72918,51.56457c0,0 -0.48863,1.68253 -0.83897,2.99628c-0.35033,1.31376 -0.2397,3.4757 -0.2397,3.4757h-4.6742c0,0 0.20951,-2.63882 0.71911,-3.83526c0.50959,-1.19643 2.03748,-2.63673 2.03748,-2.63673z" fill="#949494" stroke="#949494"/><path d="M237.08132,51.92413c0,0 -0.80237,1.71524 -1.07867,2.99628c-0.2763,1.28104 0.11985,3.35584 0.11985,3.35584l-4.07495,-0.2397c0,0 -0.50886,-1.98802 -0.2397,-3.23599c0.26917,-1.24797 1.55807,-2.87644 1.55807,-2.87644z" fill="#949494" stroke="#949494"/><path d="M242.23494,52.28368c0,0 0.50277,1.99781 0.4794,3.23599c-0.02337,1.23817 -0.11985,3.11614 -0.11985,3.11614l-3.9551,-0.11986c0,0 -0.54942,-2.28525 -0.4794,-3.47569c0.07002,-1.19044 1.31836,-2.75659 1.31836,-2.75659z" fill="#949494" stroke="#949494"/><path d="M253.62083,52.04398c0,0 1.52789,1.4403 2.03748,2.63674c0.5096,1.19643 0.71911,3.83524 0.71911,3.83524h-4.6742c0,0 0.11063,-2.16194 -0.2397,-3.4757c-0.35034,-1.31376 -0.83897,-2.99628 -0.83897,-2.99628z" data-paper-data="{&quot;index&quot;:null}" fill="#949494" stroke="#949494"/><path d="M247.98781,52.40353c0,0 1.2889,1.62846 1.55807,2.87645c0.26917,1.24797 -0.2397,3.23599 -0.2397,3.23599l-4.07495,0.23971c0,0 0.39615,-2.0748 0.11985,-3.35584c-0.2763,-1.28104 -1.07867,-2.9963 -1.07867,-2.9963z" data-paper-data="{&quot;index&quot;:null}" fill="#949494" stroke="#949494"/></g><path d="M239.02728,83.44947l3.20058,0.06156" fill="none" stroke="#000000" stroke-width="0.5" stroke-linecap="round"/><g stroke-linecap="round"><path d="M237.06187,74.16641c0,0 -1.95388,0.74586 -3.42286,0.56714c-1.46898,-0.17871 -3.3159,-1.38695 -3.3159,-1.38695c0,0 1.71082,-1.19665 3.10197,-1.3645c1.39115,-0.16784 3.52983,0.56433 3.52983,0.56433z" fill="#ffffff" stroke="none" stroke-width="0"/><path d="M233.85919,71.97404c1.67883,-0.0501 3.0339,0.72236 3.0339,0.72236v0.65012l-6.50122,0.07224c0,0 2.36009,-1.41167 3.46732,-1.44471z" data-paper-data="{&quot;index&quot;:null}" fill="#bfbfbf" stroke="none" stroke-width="0"/><path d="M230.4641,73.26218c0,0 2.1869,-1.38221 3.75627,-1.44472c1.70069,-0.06774 2.60047,0.57789 2.60047,0.57789" fill="none" stroke="#000000" stroke-width="0.5"/></g><path d="M230.16863,71.2003c0,0 2.07393,-0.85436 3.46773,-0.85436c1.3938,0 3.56824,0.85436 3.56824,0.85436" fill="none" stroke="#000000" stroke-width="0.5" stroke-linecap="round"/><g stroke="none"><path d="M233.79235,73.37325c0,-0.71697 0.58122,-1.29819 1.29819,-1.29819c0.71697,0 1.2982,0.58122 1.2982,1.29819c0,0.71697 -0.58123,1.2982 -1.2982,1.2982c-0.71697,0 -1.29819,-0.58123 -1.29819,-1.2982z" fill="#3f3f3f" stroke-width="0" stroke-linecap="butt"/><path d="M234.556,73.2587c0,-0.31632 0.25643,-0.57274 0.57274,-0.57274c0.31632,0 0.57273,0.25643 0.57273,0.57274c0,0.31632 -0.25643,0.57273 -0.57273,0.57273c-0.31632,0 -0.57274,-0.25642 -0.57274,-0.57273z" fill="#252525" stroke-width="NaN" stroke-linecap="butt"/><path d="M235.09054,72.15143c0.95523,0.07081 1.22184,1.14548 1.22184,1.14548l-2.52002,-0.07637c0,0 0.41298,-1.13472 1.29819,-1.0691z" fill="#252525" stroke-width="0" stroke-linecap="round"/><path d="M235.34509,72.83577c0,-0.23593 0.19125,-0.42719 0.42719,-0.42719c0.23593,0 0.42719,0.19125 0.42719,0.42719c0,0.23593 -0.19125,0.42719 -0.42719,0.42719c-0.23593,0 -0.42719,-0.19125 -0.42719,-0.42719z" fill="#808080" stroke-width="0" stroke-linecap="butt"/></g><g data-paper-data="{&quot;index&quot;:null}" stroke-linecap="round"><path d="M243.80278,72.49828c0,0 2.13867,-0.73218 3.52982,-0.56434c1.39115,0.16784 3.10197,1.3645 3.10197,1.3645c0,0 -1.84692,1.20824 -3.3159,1.38695c-1.46898,0.17871 -3.42286,-0.56714 -3.42286,-0.56714z" fill="#ffffff" stroke="none" stroke-width="0"/><path d="M250.36581,73.37062l-6.50122,-0.07224v-0.65013c0,0 1.35507,-0.77245 3.0339,-0.72236c1.10724,0.03304 3.46732,1.44471 3.46732,1.44471z" data-paper-data="{&quot;index&quot;:null}" fill="#bfbfbf" stroke="none" stroke-width="0"/><path d="M243.93683,72.34721c0,0 0.8998,-0.64563 2.60047,-0.57789c1.56937,0.06252 3.75627,1.44471 3.75627,1.44471" fill="none" stroke="#000000" stroke-width="0.5"/></g><path d="M243.55307,71.15216c0,0 2.17445,-0.85437 3.56825,-0.85437c1.3938,0 3.46773,0.85437 3.46773,0.85437" data-paper-data="{&quot;index&quot;:null}" fill="none" stroke="#000000" stroke-width="0.5" stroke-linecap="round"/><g data-paper-data="{&quot;index&quot;:null}" stroke="none"><path d="M245.66714,74.62331c-0.71697,0 -1.2982,-0.58123 -1.2982,-1.2982c0,-0.71697 0.58123,-1.29819 1.2982,-1.29819c0.71697,0 1.2982,0.58122 1.2982,1.29819c0,0.71697 -0.58122,1.2982 -1.2982,1.2982z" fill="#3f3f3f" stroke-width="0" stroke-linecap="butt"/><path d="M245.62895,73.7833c-0.31632,0 -0.57273,-0.25642 -0.57273,-0.57273c0,-0.31632 0.25642,-0.57274 0.57273,-0.57274c0.31632,0 0.57274,0.25643 0.57274,0.57274c0,0.31632 -0.25643,0.57273 -0.57274,0.57273z" fill="#252525" stroke-width="NaN" stroke-linecap="butt"/><path d="M246.96532,73.17238l-2.52002,0.07637c0,0 0.2666,-1.07467 1.22183,-1.14548c0.88521,-0.06561 1.2982,1.0691 1.2982,1.0691z" fill="#252525" stroke-width="0" stroke-linecap="round"/><path d="M244.9854,73.21481c-0.23593,0 -0.42719,-0.19125 -0.42719,-0.42719c0,-0.23593 0.19125,-0.42719 0.42719,-0.42719c0.23593,0 0.42719,0.19125 0.42719,0.42719c0,0.23593 -0.19125,0.42719 -0.42719,0.42719z" fill="#808080" stroke-width="0" stroke-linecap="butt"/></g><g stroke-linecap="round"><path d="M240.66987,75.16529l-0.15309,3.95397l-0.91975,0.01433z" fill="#807460" stroke="none" stroke-width="0"/><path d="M241.44507,79.10825l-0.91765,-0.0774l0.02765,-3.95828z" data-paper-data="{&quot;index&quot;:null}" fill="#fff1d8" stroke="none" stroke-width="0"/><path d="M240.66274,79.25286l-0.4333,-0.47217" fill="none" stroke="#000000" stroke-width="0.5"/></g><g data-paper-data="{&quot;index&quot;:null}" stroke-width="1"><path d="M254.17252,200.83994c5.75214,0 10.41518,6.58704 10.41518,14.71255c0,4.38272 -0.78821,24.59377 -0.79495,34.01692c-0.00613,8.57846 -7.21597,12.32148 -9.86553,12.32148c-2.42398,0 -10.43236,-4.86711 -10.37008,-11.87136c0.08714,-9.8021 0.20022,-29.76565 0.20022,-34.46704c0,-8.12551 4.66303,-14.71255 10.41517,-14.71255z" fill="#ffe7bf" stroke="#000000" stroke-linecap="butt"/><path d="" fill="none" stroke="#010040" stroke-linecap="round"/><path d="" fill="none" stroke="#010040" stroke-linecap="round"/></g><g data-paper-data="{&quot;index&quot;:null}" stroke-width="1"><path d="M253.9374,246.17155c5.75214,0 10.41517,6.58704 10.41517,14.71255c0,4.38272 -0.7882,24.59377 -0.79494,34.01693c-0.00613,8.57846 -7.21598,12.32147 -9.86554,12.32147c-2.42398,0 -10.43234,-4.8671 -10.37007,-11.87135c0.08714,-9.8021 0.20021,-29.76566 0.20021,-34.46704c0,-8.12551 4.66303,-14.71255 10.41517,-14.71255z" fill="#ffe7bf" stroke="#000000" stroke-linecap="butt"/><path d="M249.10566,247.77675c1.71794,-1.09402 3.05903,-1.92113 5.02478,-1.77322c1.96575,0.14791 3.41196,0.93136 5.10359,2.16533c1.69163,1.23397 3.07965,3.97618 3.07965,3.97618l-16.35134,-0.48485c0,0 1.42539,-2.78942 3.14333,-3.88344z" fill="#ffe7bf" stroke="#ffe7bf" stroke-linecap="round"/><path d="" fill="none" stroke="#010040" stroke-linecap="round"/><path d="" fill="none" stroke="#010040" stroke-linecap="round"/><path d="" fill="none" stroke="#010040" stroke-linecap="round"/><path d="" fill="none" stroke="#010040" stroke-linecap="round"/><path d="" fill="none" stroke="#010040" stroke-linecap="round"/><path d="" fill="none" stroke="#010040" stroke-linecap="round"/></g><path d="M254.03435,306.60291c4.91007,0.14485 9.12656,-6.35209 9.12656,-6.35209c0,0 0.31241,5.3407 1.46482,6.80695c1.15241,1.46625 2.3827,2.22253 4.11225,3.31885c1.72955,1.09632 3.06858,1.27907 4.13701,1.68482c1.06843,0.40575 1.72045,0.21531 2.79892,1.76756c1.07847,1.55225 -3.49955,0.60085 -8.21686,0.95748c-7.00799,0.52981 -15.64589,0.00711 -18.43927,-0.26324c-2.79337,-0.27035 -3.70993,-0.49935 -5.16605,-3.49057c-1.81646,-3.73149 -0.41821,-11.36382 -0.41821,-11.36382c0,0 5.69076,6.78921 10.60083,6.93406z" data-paper-data="{&quot;index&quot;:null}" fill="#ffffff" stroke="#000000" stroke-width="1" stroke-linecap="round"/><g stroke-width="1"><path d="M236.97346,215.9149c0,4.70138 0.11307,24.66494 0.20021,34.46704c0.06227,7.00425 -7.9461,11.87136 -10.37008,11.87136c-2.64956,0 -9.8594,-3.74301 -9.86553,-12.32148c-0.00674,-9.42315 -0.79495,-29.63421 -0.79495,-34.01693c0,-8.12551 4.66304,-14.71255 10.41518,-14.71255c5.75214,0 10.41518,6.58704 10.41518,14.71255z" fill="#ffe7bf" stroke="#000000" stroke-linecap="butt"/><path d="" fill="none" stroke="#010040" stroke-linecap="round"/><path d="" fill="none" stroke="#010040" stroke-linecap="round"/></g><g stroke-width="1"><path d="M237.20857,261.2465c0,4.70139 0.11308,24.66495 0.20022,34.46704c0.06227,7.00425 -7.9461,11.87135 -10.37008,11.87135c-2.64956,0 -9.85941,-3.74301 -9.86554,-12.32148c-0.00674,-9.42315 -0.79495,-29.6342 -0.79495,-34.01692c0,-8.12551 4.66304,-14.71255 10.41518,-14.71255c5.75214,0 10.41517,6.58704 10.41517,14.71255z" fill="#ffe7bf" stroke="#000000" stroke-linecap="butt"/><path d="M234.76847,252.0226l-16.35134,0.48485c0,0 1.38802,-2.74222 3.07965,-3.97618c1.69163,-1.23397 3.13783,-2.01742 5.10358,-2.16533c1.96575,-0.14791 3.30684,0.67919 5.02478,1.77322c1.71794,1.09402 3.14333,3.88344 3.14333,3.88344z" fill="#ffe7bf" stroke="#ffe7bf" stroke-linecap="round"/><path d="" fill="none" stroke="#010040" stroke-linecap="round"/><path d="" fill="none" stroke="#010040" stroke-linecap="round"/><path d="" fill="none" stroke="#010040" stroke-linecap="round"/><path d="" fill="none" stroke="#010040" stroke-linecap="round"/><path d="" fill="none" stroke="#010040" stroke-linecap="round"/><path d="" fill="none" stroke="#010040" stroke-linecap="round"/></g><path d="M237.29729,300.03126c0,0 1.39825,7.63234 -0.41822,11.36382c-1.45612,2.99123 -2.37267,3.22022 -5.16604,3.49057c-2.79337,0.27035 -11.43128,0.79305 -18.43927,0.26324c-4.71731,-0.35663 -9.29533,0.59477 -8.21686,-0.95748c1.07847,-1.55225 1.73048,-1.36182 2.79892,-1.76756c1.06843,-0.40575 2.40747,-0.5885 4.13702,-1.68482c1.72955,-1.09632 2.95984,-1.8526 4.11225,-3.31885c1.15241,-1.46625 1.46482,-6.80695 1.46482,-6.80695c0,0 4.21649,6.49694 9.12655,6.35209c4.91007,-0.14485 10.60083,-6.93407 10.60083,-6.93407z" fill="#ffffff" stroke="#000000" stroke-width="1" stroke-linecap="round"/><g fill="#000000" stroke="#000000" stroke-width="1" stroke-linecap="round"><path d="M262.44725,200.51923l-17.17242,17.39442l-10.04887,-0.11402l-17.93497,-17.12416z"/><path d="M236.35914,215.37834l-0.23488,2.97619l-16.74711,-12.66731l1.74711,-2.95367z"/><path d="M258.77395,202.99343l2.32662,1.95055l-15.79851,14.32959l-1.66851,-3.76014z" data-paper-data="{&quot;index&quot;:null}"/></g><g stroke-width="1" stroke-linecap="round"><path d="M264.22182,201.016l11.28673,53.76003l-66.68181,-0.29823l8.54022,-53.2227z" fill="#027f00" stroke="#000000"/><path d="M222.58775,214.18618l5.23629,13.84187" fill="none" stroke="#014000"/><path d="M231.38596,219.66317l-0.70173,-8.58564" fill="none" stroke="#014000"/><path d="M228.6187,220.30528l-1.19164,-4.72261" fill="none" stroke="#014000"/><path d="M244.98605,246.1054l10.11159,-15.30037" fill="none" stroke="#014000"/><path d="M260.54431,246.12559l4.96248,-13.13352" fill="none" stroke="#014000"/><path d="M256.69994,237.89224l1.19164,4.72262" fill="none" stroke="#014000"/></g><g data-paper-data="{&quot;index&quot;:null}" stroke-width="1"><path d="M263.92526,98.99646c4.34233,0 7.86249,6.36822 7.86249,14.2238c0,4.23712 -0.59502,23.77677 -0.60011,32.88689c-0.00463,8.29349 -5.44739,11.91216 -7.44756,11.91216c-1.82988,0 -7.87546,-4.70542 -7.82845,-11.47699c0.06579,-9.47647 0.15115,-28.77685 0.15115,-33.32206c0,-7.85558 3.52015,-14.2238 7.86249,-14.2238z" fill="#ffffff" stroke="#000000" stroke-linecap="butt"/><path d="M266.22369,132.83287l2.03704,-11.2963" fill="none" stroke="#818181" stroke-linecap="round"/><path d="M261.0385,134.86992l1.2963,12.22222" fill="none" stroke="#818181" stroke-linecap="round"/></g><g data-paper-data="{&quot;index&quot;:null}" stroke-width="1"><path d="M264.01207,143.24416c4.34233,0 7.86249,6.36821 7.86249,14.2238c0,4.23712 -0.59502,23.77678 -0.60011,32.88689c-0.00463,8.29349 -5.44739,11.91216 -7.44756,11.91216c-1.82988,0 -7.87546,-4.70543 -7.82845,-11.477c0.06579,-9.47647 0.15115,-28.77685 0.15115,-33.32206c0,-7.85558 3.52015,-14.2238 7.86249,-14.2238z" fill="#ffffff" stroke="#000000" stroke-linecap="butt"/><path d="M260.36455,144.79602c1.29689,-1.05768 2.30928,-1.85731 3.79324,-1.71431c1.48396,0.143 2.57571,0.90043 3.85273,2.0934c1.27703,1.19297 2.32486,3.8441 2.32486,3.8441l-12.34375,-0.46875c0,0 1.07603,-2.69675 2.37292,-3.75444z" fill="#ffffff" stroke="#ffffff" stroke-linecap="round"/><path d="M268.26073,164.8699l-3.51852,7.96296" fill="none" stroke="#818181" stroke-linecap="round"/><path d="M260.66813,167.64769l0.37037,-6.85186" fill="none" stroke="#818181" stroke-linecap="round"/><path d="M263.26073,165.61064l-0.55555,2.03704" fill="none" stroke="#818181" stroke-linecap="round"/><path d="M264.55702,194.68473l-4.62963,-8.33333" fill="none" stroke="#818181" stroke-linecap="round"/><path d="M266.77924,186.90695l-0.55555,-4.81482" fill="none" stroke="#818181" stroke-linecap="round"/><path d="M264.00147,187.64769l1.29629,1.66666" fill="none" stroke="#818181" stroke-linecap="round"/></g><g data-paper-data="{&quot;index&quot;:null}" stroke="#000000" stroke-linecap="round"><path d="M269.29176,198.50437c0,0 3.49855,1.79228 5.16708,3.59538c1.66853,1.8031 3.74501,3.75787 4.52042,6.87337c0.77541,3.1155 -0.62624,3.00455 -1.875,2.65625c-1.24876,-0.3483 -2.48485,-2.57167 -3.52465,-3.81365c-1.0398,-1.24198 -3.26166,-3.30253 -6.05738,-2.19492c-2.79572,1.10762 -0.87634,2.66484 0.01044,5.08584c0.8031,2.19255 2.75966,4.49875 1.44659,5.61023c-1.48282,1.25517 -2.40465,-0.49794 -4.53125,-2.5c-2.1266,-2.00206 -2.1527,-3.76389 -3.06147,-6.72582c-0.90877,-2.96193 -1.31353,-6.71168 -1.31353,-6.71168c0,0 3.71312,1.62561 5.56138,1.2497c1.84826,-0.37591 3.65737,-3.1247 3.65737,-3.1247z" fill="#ffe7bf" stroke-width="1"/><path d="M275.85426,211.62937c0,0 -0.58836,1.00213 -1.89012,-0.3125c-1.75772,-1.7751 -2.95363,-5.46875 -2.95363,-5.46875c0,0 2.10293,1.60734 2.95919,2.62933c0.74185,0.88544 1.88456,3.15192 1.88456,3.15192z" fill="#ffe7bf" stroke-width="1"/><path d="M273.82301,211.78562c0,0 -0.58836,1.00213 -1.89012,-0.3125c-1.75772,-1.7751 -2.95363,-5.46875 -2.95363,-5.46875l1.51974,-0.3077z" fill="#ffe7bf" stroke-width="1"/><path d="M271.63551,211.78562c0,0 -0.58836,1.00213 -1.89012,-0.3125c-1.75772,-1.7751 -2.95363,-5.46875 -2.95363,-5.46875l1.69446,-0.61716z" fill="#ffe7bf" stroke-width="1"/><path d="M279.29776,209.50196l-0.86539,2.30769c0,0 -1.05063,-2.31023 -1.15384,-3.07692c-0.10321,-0.76669 0.48077,-1.92308 0.48077,-1.92308z" fill="#ffbfbf" stroke-width="0.5"/><path d="M265.35546,214.69426c0,0 0.93037,-0.38413 1.63461,0c0.70424,0.38413 1.53846,1.73077 1.53846,1.73077l-0.86539,0.28847z" fill="#ffbfbf" stroke-width="0.5"/><path d="M268.52853,216.42503l-0.96153,0.38461l-0.57693,-0.76923l0.96154,-0.38462z" fill="#bebebe" stroke-width="0.5"/><path d="M279.39392,209.88658l-1.05769,1.92308l-0.28847,-1.44231l0.76924,-1.25z" fill="#bebebe" stroke-width="0.5"/></g><g stroke-width="1"><path d="M223.94838,112.92615c0,4.54521 0.08536,23.84559 0.15115,33.32206c0.04701,6.77157 -5.99857,11.47699 -7.82845,11.47699c-2.00018,0 -7.44294,-3.61867 -7.44756,-11.91216c-0.00509,-9.11012 -0.60011,-28.64976 -0.60011,-32.88689c0,-7.85558 3.52015,-14.2238 7.86249,-14.2238c4.34233,0 7.86249,6.36822 7.86249,14.2238z" fill="#ffffff" stroke="#000000" stroke-linecap="butt"/><path d="M213.78747,132.53876l-2.03704,-11.2963" fill="none" stroke="#818181" stroke-linecap="round"/><path d="M218.97265,134.57579l-1.2963,12.22222" fill="none" stroke="#818181" stroke-linecap="round"/></g><g stroke-width="1"><path d="M223.86158,157.17384c0,4.54521 0.08536,23.84559 0.15114,33.32206c0.04701,6.77157 -5.99857,11.47699 -7.82845,11.47699c-2.00018,0 -7.44294,-3.61867 -7.44756,-11.91216c-0.00509,-9.11012 -0.60011,-28.64976 -0.60011,-32.88689c0,-7.85558 3.52015,-14.2238 7.86249,-14.2238c4.34233,0 7.86249,6.36822 7.86249,14.2238z" fill="#ffffff" stroke="#000000" stroke-linecap="butt"/><path d="M222.01953,148.25634l-12.34375,0.46875c0,0 1.04783,-2.65113 2.32486,-3.8441c1.27703,-1.19297 2.36877,-1.95041 3.85273,-2.0934c1.48396,-0.143 2.49635,0.65663 3.79324,1.71431c1.29689,1.05768 2.37292,3.75444 2.37292,3.75444z" fill="#ffffff" stroke="#ffffff" stroke-linecap="round"/><path d="M215.26895,172.53875l-3.51852,-7.96296" fill="none" stroke="#818181" stroke-linecap="round"/><path d="M218.97265,160.50172l0.37037,6.85186" fill="none" stroke="#818181" stroke-linecap="round"/><path d="M216.75043,165.31652l0.55555,2.03704" fill="none" stroke="#818181" stroke-linecap="round"/><path d="M220.08376,186.05728l-4.62963,8.33333" fill="none" stroke="#818181" stroke-linecap="round"/><path d="M213.23192,186.61284l0.55555,-4.81482" fill="none" stroke="#818181" stroke-linecap="round"/><path d="M214.71339,189.02023l1.2963,-1.66666" fill="none" stroke="#818181" stroke-linecap="round"/></g><g stroke="#000000" stroke-linecap="round"><path d="M214.37677,201.33495c1.84826,0.37591 5.56138,-1.2497 5.56138,-1.2497c0,0 -0.40476,3.74976 -1.31353,6.71169c-0.90878,2.96192 -0.93487,4.72375 -3.06147,6.72581c-2.1266,2.00206 -3.04843,3.75517 -4.53125,2.5c-1.31306,-1.11147 0.64349,-3.41767 1.44659,-5.61022c0.88677,-2.421 2.80616,-3.97822 0.01044,-5.08584c-2.79572,-1.10762 -5.01758,0.95293 -6.05738,2.19491c-1.0398,1.24198 -2.27589,3.46535 -3.52465,3.81365c-1.24876,0.3483 -2.65041,0.45925 -1.875,-2.65625c0.77541,-3.1155 2.85188,-5.07027 4.52041,-6.87337c1.66854,-1.8031 5.16709,-3.59538 5.16709,-3.59538c0,0 1.80911,2.74879 3.65737,3.1247z" fill="#ffe7bf" stroke-width="1"/><path d="M206.04146,208.18334c0.85626,-1.022 2.95919,-2.62934 2.95919,-2.62934c0,0 -1.19591,3.69365 -2.95363,5.46875c-1.30176,1.31463 -1.89012,0.3125 -1.89012,0.3125c0,0 1.14271,-2.26647 1.88456,-3.15191z" fill="#ffe7bf" stroke-width="1"/><path d="M209.51216,205.40254l1.51974,0.3077c0,0 -1.19591,3.69365 -2.95363,5.46875c-1.30176,1.31463 -1.89012,0.3125 -1.89012,0.3125z" fill="#ffe7bf" stroke-width="1"/><path d="M211.52494,205.09308l1.69446,0.61716c0,0 -1.19591,3.69365 -2.95363,5.46875c-1.30176,1.31463 -1.89012,0.3125 -1.89012,0.3125z" fill="#ffe7bf" stroke-width="1"/><path d="M202.25185,206.51553c0,0 0.58398,1.15639 0.48077,1.92308c-0.10321,0.76669 -1.15385,3.07692 -1.15385,3.07692l-0.86539,-2.30769z" fill="#ffbfbf" stroke-width="0.5"/><path d="M212.34802,216.41938l-0.86539,-0.28847c0,0 0.83422,-1.34663 1.53846,-1.73076c0.70424,-0.38413 1.63461,0 1.63461,0z" fill="#ffbfbf" stroke-width="0.5"/><path d="M212.05954,215.36169l0.96154,0.38461l-0.57692,0.76923l-0.96153,-0.38462z" fill="#bebebe" stroke-width="0.5"/><path d="M201.19416,208.82322l0.76923,1.25l-0.28847,1.44231l-1.05769,-1.92308z" fill="#bebebe" stroke-width="0.5"/></g></g></g></svg>